<?xml version="1.0" encoding="UTF-8" standalone="no"?>
<svg
   xmlns:dc="http://purl.org/dc/elements/1.1/"
   xmlns:cc="http://creativecommons.org/ns#"
   xmlns:rdf="http://www.w3.org/1999/02/22-rdf-syntax-ns#"
   xmlns:svg="http://www.w3.org/2000/svg"
   xmlns="http://www.w3.org/2000/svg"
   xmlns:sodipodi="http://sodipodi.sourceforge.net/DTD/sodipodi-0.dtd"
   xmlns:inkscape="http://www.inkscape.org/namespaces/inkscape"
   width="16.108124mm"
   height="12.962772mm"
   viewBox="0 0 16.108124 12.962772"
   version="1.1"
   id="svg8"
   inkscape:version="1.0.2 (e86c8708, 2021-01-15)"
   sodipodi:docname="canto_logo.svg">
  <defs
     id="defs2" />
  <sodipodi:namedview
     id="base"
     pagecolor="#ffffff"
     bordercolor="#666666"
     borderopacity="1.0"
     inkscape:pageopacity="0.0"
     inkscape:pageshadow="2"
     inkscape:zoom="3.959798"
     inkscape:cx="111.5471"
     inkscape:cy="63.790851"
     inkscape:document-units="mm"
     inkscape:current-layer="layer1"
     inkscape:document-rotation="0"
     showgrid="false"
     inkscape:window-width="1980"
     inkscape:window-height="1116"
     inkscape:window-x="1896"
     inkscape:window-y="104"
     inkscape:window-maximized="0" />
  <metadata
     id="metadata5">
    <rdf:RDF>
      <cc:Work
         rdf:about="">
        <dc:format>image/svg+xml</dc:format>
        <dc:type
           rdf:resource="http://purl.org/dc/dcmitype/StillImage" />
        <dc:title></dc:title>
      </cc:Work>
    </rdf:RDF>
  </metadata>
  <g
     inkscape:label="Layer 1"
     inkscape:groupmode="layer"
     id="layer1"
     transform="translate(-33.920497,-85.19536)">
    <path
       style="fill:#ffffff;stroke-width:0.264583"
       d="m 34.097301,97.984403 c -0.09701,-0.097 -0.176389,-2.89079 -0.176389,-6.208395 0,-6.918345 -0.09184,-6.674185 2.455325,-6.527202 1.610703,0.09295 1.746034,0.571526 0.195178,0.690223 l -1.063003,0.08136 v 5.673329 5.673325 h 0.772111 c 0.98526,0 1.647698,0.25273 1.459713,0.55689 -0.168447,0.27256 -3.377582,0.32583 -3.642935,0.0605 z m 12.259029,-0.0478 c 0,-0.31673 0.6556,-0.56957 1.476848,-0.56957 h 0.639819 v -5.423955 c 0,-2.983178 0.0021,-5.513256 0.0047,-5.622396 0.0026,-0.109141 -0.473681,-0.235049 -1.058333,-0.279797 -0.71207,-0.0545 -1.063003,-0.207358 -1.063003,-0.463021 0,-0.284566 0.357343,-0.381662 1.404638,-0.381662 2.395317,0 2.320206,-0.226389 2.238519,6.747082 l -0.07128,6.085209 -1.785938,0.0782 c -0.992048,0.0435 -1.785937,-0.0322 -1.785937,-0.17013 z m -4.762501,-1.17787 c 0,-0.18905 0.413949,-0.49341 0.919885,-0.67636 0.727101,-0.26292 0.975515,-0.53745 1.185326,-1.30992 1.564703,-5.760871 1.58038,-5.89066 0.805206,-6.665834 -0.48564,-0.48564 -0.728507,-1.322917 -0.383735,-1.322917 0.07999,0 0.49469,0.180609 0.921563,0.401354 1.254012,0.648475 1.660182,1.749235 1.522575,4.126321 -0.159805,2.760536 -0.961743,4.371376 -2.58664,5.195766 -1.305559,0.66237 -2.38418,0.77619 -2.38418,0.25159 z m -2.270538,-0.4572 c -0.30291,-0.11406 -0.882276,-0.60139 -1.287478,-1.08295 -0.695766,-0.82687 -0.729764,-0.98641 -0.61143,-2.869279 0.150145,-2.389021 1.080668,-4.685347 2.194288,-5.415019 0.412264,-0.270126 1.276731,-0.550556 1.921036,-0.623179 1.130528,-0.127427 1.160862,-0.11223 0.868068,0.434861 -0.166868,0.311796 -0.51888,0.566902 -0.782247,0.566902 -0.797793,0 -1.237962,0.801299 -1.97419,3.593882 -0.848903,3.219972 -0.865725,3.739792 -0.145822,4.506092 0.673322,0.71672 0.579262,1.17544 -0.182225,0.88869 z m 1.926004,-4.432911 c -0.943737,-1.042819 -0.359275,-2.439086 1.020974,-2.439086 0.735973,0 0.985587,0.138669 1.235009,0.686091 0.671941,1.474749 -1.194961,2.925406 -2.255983,1.752995 z"
       id="path847" />
  </g>
</svg>
