<?xml version="1.0" encoding="UTF-8"?>
<svg id="Layer_1" data-name="Layer 1" xmlns="http://www.w3.org/2000/svg" viewBox="0 0 141.73 141.73">
  <defs>
    <style>
      .cls-1 {
        fill: #f47d20;
      }

      .cls-2 {
        fill: #4d4848;
      }
    </style>
  </defs>
  <g id="Nodes">
    <path class="cls-2" d="m46.32,71.22c.18-.38.32-.79.5-1.3.21-.57.37-1.15.5-1.74l1.8-7.8c.15-.8.28-1.39.3-1.74.05-.31.07-.63.06-.94v-.35h4.07l-2.45,10.83c-.17.77-.29,1.36-.35,1.77-.07.42-.1.84-.09,1.27h-4.34Z"/>
    <path class="cls-1" d="m100.22,33.3c-2.62,0-4.74,2.12-4.74,4.74,0,.79.2,1.57.57,2.26-.47.24-1.57.79-3.11,1.59-.82-1.77-2.91-2.54-4.68-1.73s-2.54,2.91-1.73,4.68h0c.06.13.13.26.21.38-.79.44-1.61.9-2.46,1.37-.77-1.32-2.46-1.77-3.78-1s-1.77,2.46-1,3.78c-.87.52-1.75,1.05-2.63,1.59-.85-.73-2.12-.63-2.85.21-.32.37-.49.85-.49,1.34,0,.17.03.35.07.52-3.37,2.14-6.59,4.5-9.66,7.06-3.2-7.16-7.92-15.01-14.49-21.41l-.02-.02c-.77-.76-1.39-.42-.52.52l.03.04c5.57,6,9.95,14.68,12.94,22.6-11.32,9.67-23.8,28.4-10.12,34.28,1.99.86,2.9-.78,2.04-1.29-.15-.09-6.25-3.38-2.37-13.5h9.75c.52,0,.95-.42.95-.94,0-.52-.42-.94-.94-.95h-8.96c.58-1.23,1.22-2.42,1.93-3.58h7.01c.52-.03.92-.47.89-1-.03-.48-.41-.87-.89-.89h-5.81c.72-1.08,1.54-2.23,2.45-3.4h3.34c.52-.03.92-.47.89-1-.03-.48-.41-.87-.89-.89h-1.86c1.06-1.3,2.23-2.65,3.52-4.06l.03-.04c2.57,7.45,3.81,13.79,3.54,15.91-.07.76-.51,1.43-1.19,1.78-.48.23-.68.89.08,1.11,2.39.71,3.87-1.67,4.14-3.58s-1.04-8.97-4.5-17.37c3.01-2.94,6.23-5.66,9.62-8.14.31.18.65.28,1.01.28,1.12,0,2.02-.9,2.03-2.02,0-.13-.01-.27-.04-.4.91-.63,1.8-1.24,2.69-1.83,1.18.96,2.92.78,3.88-.41.55-.68.75-1.58.53-2.42.89-.56,1.75-1.08,2.58-1.57,1.32,1.43,3.55,1.51,4.98.18,1-.92,1.37-2.34.96-3.64,1.5-.84,2.6-1.43,3.14-1.74,1.47,2.16,4.42,2.72,6.58,1.25,2.16-1.47,2.72-4.42,1.25-6.58-.88-1.29-2.35-2.07-3.91-2.07Z"/>
    <path class="cls-2" d="m36.17,71.22h-12.07c-1.21,0-2.03-.28-2.48-.84-.25-.39-.38-.85-.36-1.32,0-.51.08-1.01.21-1.5l1.5-6.55c.33-1.33.8-2.27,1.45-2.83s1.59-.84,2.83-.84h8.92c1.27,0,2.09.28,2.51.84.29.39.42.87.39,1.36,0,.5-.08.99-.21,1.47l-.97,4.34h-12.13l-.65,2.83c-.05.22-.08.45-.09.68,0,.15,0,.28.06.32.09.18.35.28.77.28h8.85c.77,0,1.55-.07,2.3-.23l-.82,2Zm-.94-10.83c.07-.23.11-.47.12-.71,0-.1-.02-.2-.06-.3-.12-.18-.41-.28-.84-.28h-6.25c-.32-.03-.64.07-.88.28-.26.27-.4.63-.41,1l-.74,3.19h8.32l.74-3.19Z"/>
    <path class="cls-2" d="m39.18,71.22c.19-.43.34-.89.53-1.45.22-.64.4-1.29.53-1.95l3.1-14.35c.19-.89.31-1.56.37-1.95.06-.48.08-.97.06-1.46h4.32l-3.85,17.75c-.19.86-.31,1.52-.38,1.99-.08.47-.11.95-.09,1.42h-4.6Z"/>
    <path class="cls-2" d="m88.95,59.68c-.44-.03-.89-.06-1.39-.06h-1.98c-.31-.02-.62.06-.88.23-.27.24-.44.56-.5.91l-1.65,7.41c-.25.88-.39,1.8-.41,2.71v.32h-4.3c.18-.44.35-.86.47-1.27s.28-.98.47-1.77l1.77-7.8c.21-.77.3-1.36.38-1.8.05-.41.07-.82.06-1.24h3.62l-.15,1.42c.2-.43.51-.8.91-1.06.48-.26,1.02-.38,1.56-.35h3.54l.85,1.53c-.19.17-.36.35-.5.56-.21.28-.35.38-.44.38-.53-.04-1-.1-1.44-.13Z"/>
    <path class="cls-2" d="m69.86,71.22c.18-.38.32-.79.5-1.3.21-.57.38-1.15.5-1.74l1.8-7.8c.15-.8.28-1.39.3-1.74.05-.31.07-.63.06-.94v-.35h4.07l-2.45,10.83c-.18.77-.3,1.36-.35,1.77-.07.42-.09.84-.08,1.26l-4.35.02Z"/>
    <path class="cls-2" d="m54.23,52.5c0,1.1-.89,2-2,2-1.1,0-2-.89-2-2,0-1.1.89-2,2-2h0c1.1,0,1.99.89,2,2h0Z"/>
    <path class="cls-2" d="m65.26,95.67c.78,0,.86-.08,1.03-.74l1.02-4.09c.21-.84.21-.98.05-1.32h1.78c-.33.35-.4.49-.6,1.32l-.94,3.77c-.42,1.67-1.03,2.28-2.63,2.28h-3.73c-1.44,0-1.86-.74-1.47-2.28l.95-3.83c.18-.71.15-.98.09-1.27h3.27c-.28.38-.47.81-.56,1.27l-1.05,4.18c-.12.48.04.69.53.69h2.27Z"/>
    <path class="cls-2" d="m70.97,90.79h-.02l-1.19,4.78c-.21.84-.21.98-.05,1.33h-1.78c.33-.35.4-.5.6-1.33l1.18-4.74c.21-.84.21-.98.05-1.32h3.95l1.5,6.01h.03l1.17-4.69c.21-.84.21-.98.05-1.32h1.78c-.33.35-.4.49-.6,1.32l-1.51,6.05h-3.64l-1.52-6.1Z"/>
    <path class="cls-2" d="m77.35,96.9c.28-.38.47-.81.56-1.27l1.21-4.84c.17-.71.15-.98.08-1.27h3.26c-.28.38-.47.81-.56,1.27l-1.21,4.84c-.17.7-.15.98-.08,1.27h-3.26Z"/>
    <path class="cls-2" d="m90.31,89.54l-.15,1.52c-.27-.23-.62-.33-.98-.3h-1.28l-1.22,4.89c-.18.7-.15.98-.09,1.27h-3.27c.28-.38.47-.81.56-1.27l1.22-4.89h-1.28c-.39-.01-.78.09-1.11.3l.61-1.52h6.99Z"/>
    <path class="cls-2" d="m94.89,95.67c.45,0,.89-.06,1.32-.2l-.6,1.42h-6.5c.28-.38.47-.81.56-1.27l1.21-4.84c.17-.71.15-.98.08-1.27h6.37l-.12,1.42c-.39-.14-.81-.21-1.23-.2h-2.29l-.43,1.73h2.01c.45,0,.89-.06,1.32-.2l-.4,1.61c-.39-.14-.8-.21-1.22-.2h-2.01l-.49,1.98h2.44Z"/>
    <path class="cls-2" d="m98.11,90.79c.18-.71.15-.98.08-1.27h5.73c1.57,0,1.97.6,1.6,2.1l-.79,3.18c-.37,1.5-1.08,2.1-2.64,2.1h-5.73c.28-.38.47-.81.56-1.27l1.19-4.84Zm1.59,4.87h1.47c.46,0,.56-.1.68-.6l.93-3.73c.12-.5.08-.6-.38-.6h-1.46l-1.23,4.93Z"/>
    <path class="cls-2" d="m67.13,106.91c.17.53.4,1.04.7,1.51h-3.46l-.87-3.12-.85.75-.28,1.11c-.18.7-.15.98-.09,1.27h-3.27c.28-.38.47-.81.56-1.27l1.2-4.84c.14-.41.17-.85.09-1.27h3.27c-.28.38-.47.81-.56,1.27l-.5,2.04,2.48-2.23c.42-.37.53-.56.59-.8.02-.09.04-.18.04-.28h2.57c-.42.18-.81.43-1.15.73l-1.72,1.45,1.25,3.68Z"/>
    <path class="cls-2" d="m68.18,108.43c.28-.38.47-.81.56-1.27l1.2-4.84c.18-.7.15-.98.08-1.27h3.27c-.28.38-.47.81-.56,1.27l-1.2,4.83c-.18.7-.15.98-.09,1.27h-3.27Z"/>
    <path class="cls-2" d="m75.45,102.32h-.03l-1.19,4.78c-.21.84-.21.98-.05,1.33h-1.78c.33-.35.4-.5.61-1.33l1.18-4.74c.21-.84.21-.98.05-1.33h3.95l1.5,6.02h.03l1.17-4.68c.21-.84.21-.98.05-1.33h1.78c-.33.35-.4.5-.61,1.33l-1.5,6.06h-3.65l-1.52-6.11Z"/>
    <path class="cls-2" d="m90.87,104c-.33.31-.55.71-.63,1.15l-.45,1.82c-.23.91-.22,1.06-.06,1.45h-2.48l.08-.68h0c-.23.43-.4.68-1.2.68h-2.49c-1.2,0-1.73-.58-1.33-2.17l.76-3.04c.4-1.59,1.21-2.17,2.41-2.17h5.39l-.13,1.42c-.34-.15-.71-.22-1.08-.2h-3c-.37,0-.58.12-.67.47l-.99,3.99c-.09.36.07.47.44.47h.94c.37,0,.58-.12.67-.47l.37-1.51h-1.05c-.18,0-.35.06-.51.14l.35-1.36h4.67Z"/>
    <path class="cls-2" d="m92.13,102.32c.17-.7.15-.98.08-1.27h5.73c1.57,0,1.97.6,1.6,2.1l-.8,3.18c-.37,1.5-1.08,2.1-2.64,2.1h-5.72c.28-.38.47-.81.56-1.27l1.2-4.84Zm1.59,4.89h1.46c.46,0,.56-.11.68-.6l.93-3.73c.12-.49.08-.6-.38-.6h-1.46l-1.23,4.94Z"/>
    <path class="cls-2" d="m100.54,103.22c.4-1.59,1.21-2.17,2.41-2.17h4.22c1.2,0,1.72.58,1.33,2.17l-.76,3.04c-.4,1.59-1.21,2.17-2.41,2.17h-4.22c-1.2,0-1.72-.58-1.33-2.17l.76-3.04Zm1.95,3.51c-.09.36.07.47.43.47h1.22c.37,0,.58-.12.67-.47l.99-3.99c.09-.36-.07-.47-.43-.47h-1.22c-.37,0-.58.12-.67.47l-.99,3.99Z"/>
    <path class="cls-2" d="m116.7,101.05h3.77c-.28.37-.47.81-.56,1.27l-1.2,4.83c-.18.7-.15.98-.07,1.27h-3.29c.28-.38.47-.81.56-1.27l1.13-4.54h-.02l-3.51,5.82h-1.95l-.54-5.81h-.02l-1.11,4.48c-.21.84-.21.98-.05,1.33h-1.78c.33-.35.4-.5.61-1.33l1.18-4.74c.21-.84.21-.98.05-1.33h3.9l.37,4.18h.03l2.52-4.16Z"/>
  </g>
</svg>