<?xml version="1.0" encoding="UTF-8"?>
<svg id="Layer_1" data-name="Layer 1" xmlns="http://www.w3.org/2000/svg" viewBox="0 0 141.73 141.73">
  <defs>
    <style>
      .cls-1 {
        fill: #2e2e5f;
      }
    </style>
  </defs>
  <path class="cls-1" d="m120.38,21.29c.01.39.03.78.03,1.17v97.95c-.39.01-.77.03-1.17.03-32.19,0-64.38.01-96.57.03-1.17,0-1.36-.31-1.36-1.4.03-32.11.03-64.23,0-96.34,0-1.15.23-1.47,1.44-1.47,32.54.04,65.08.05,97.62.03Zm-72.87,49.52c-4.73,0-9.47,0-14.21-.01-.67,0-1.02.04-1.02.9.03,12.31.03,24.62,0,36.92,0,.76.23.89.93.88,3.15-.03,6.29-.07,9.43.01,1.05.03,1.28-.27,1.26-1.28-.06-4,0-8-.04-12,0-.83.23-1.07,1.05-1.02.97.07,1.94.07,2.91,0,.79-.06,1.27.23,1.73.86,3.11,4.22,6.26,8.4,9.36,12.63.35.55.98.86,1.63.8,2.95-.04,5.9-.02,8.85-.02,13.01,0,26.02,0,39.02.02.98,0,1.25-.23,1.21-1.21-.08-1.78-.08-3.57,0-5.36.04-1.02-.19-1.4-1.31-1.37-3.69.08-7.38,0-11.07.05-.86,0-1.19-.15-1.18-1.12.05-6.91.05-13.82,0-20.74,0-.86.21-1.11,1.09-1.1,3.8.05,7.61,0,11.42.04.81,0,1.06-.21,1.05-1.03-.05-2.68-.06-5.36,0-8.04.02-.9-.28-1.51-.9-2.14-5.04-5.13-10.03-10.27-15.07-15.38-.52-.53-.47-.78.02-1.27,3.18-3.19,6.32-6.41,9.47-9.63,1.96-1.99,3.88-4.02,5.89-5.96.86-.84.65-1.84.48-2.71-.15-.79-1.06-.34-1.6-.35-2.99-.05-5.98,0-8.97-.04-.61-.03-1.21.23-1.6.7-4.68,5.02-9.38,10.03-14.1,15.02-.19.2-.31.57-.77.42,0-5-.02-10,.02-15,0-.93-.25-1.17-1.17-1.15-6.64.04-13.28.04-19.92,0-1.09,0-1.43.2-1.42,1.37.06,6.79.03,13.59.03,20.39,0,2-.51,3.84-1.93,5.33-2.19,2.3-6.42,3.03-9.77,1.68-2.98-1.19-4.44-3.56-4.44-7.19,0-6.8-.02-13.59.02-20.39,0-.88-.18-1.2-1.14-1.18-3.11.07-6.21.06-9.32,0-.91-.02-1.17.22-1.17,1.15.04,7.18,0,14.37.03,21.55.02,4.34,1.68,7.99,4.86,10.94,2.94,2.71,6.5,4.14,10.36,5.03Z"/>
  <path class="cls-1" d="m70.64,106.66l-9.14-11.97c1.14-.32,2.2-.57,3.22-.93,5.75-2.01,8.54-6.72,7.58-12.75-.05-.31-.09-.61-.15-.92q-.27-1.4,1.21-1.4c3.37,0,6.76.02,10.12-.01.69,0,.93.14.93.89-.03,7.06-.03,14.12,0,21.18,0,.78-.3.87-.95.87-3.8-.02-7.6.02-11.4-.03-.99-.02-1.26.29-1.2,1.24.08,1.25.02,2.51.02,3.77l-.25.07Z"/>
  <path class="cls-1" d="m50.57,78.7c1.82.12,4.05-.23,6.24.23,2.44.5,3.7,1.9,3.68,4.08-.01,2.18-1.35,3.66-3.8,4.11-2.31.43-4.65.18-6.97.23-1.67.03-3.34-.02-5.01.02-.66.02-.86-.19-.84-.85.04-2.33.04-4.66,0-6.99,0-.66.2-.86.85-.85,1.82.05,3.65,0,5.85,0Z"/>
  <path class="cls-1" d="m97.91,70.81h-14.8c-.52,0-.65-.2-.65-.7.01-5.15,0-10.31,0-15.8l15.45,16.49Z"/>
  <path class="cls-1" d="m55.79,70.75c6.85-1.38,12.23-4.33,15.04-11.11v16.93c-3.87-4.9-9.34-5.3-15.04-5.82Z"/>
</svg>